# Blender v2.93.5 OBJ File: ''
# www.blender.org
mtllib light shard.mtl
o Cube_Cube.001
v 0.000000 0.000000 5.932399
v 0.000000 0.000000 -5.932399
v -0.255846 -0.255846 0.000000
v -0.255846 0.255846 0.000000
v 0.255846 -0.255846 0.000000
v 0.255846 0.255846 0.000000
vt 0.375000 0.125000
vt 0.625000 0.125000
vt 0.375000 0.250000
vt 0.375000 0.625000
vt 0.625000 0.625000
vt 0.375000 0.750000
vt 0.125000 0.625000
vt 0.125000 0.750000
vt 0.875000 0.625000
vt 0.625000 0.750000
vt 0.875000 0.500000
vt 0.375000 0.500000
vt 0.625000 0.500000
vt 0.625000 0.000000
vn -0.9991 0.0000 -0.0431
vn 0.9991 0.0000 0.0431
vn 0.0000 -0.9991 0.0431
vn 0.0000 0.9991 0.0431
vn 0.0000 0.9991 -0.0431
vn 0.0000 -0.9991 -0.0431
vn 0.9991 0.0000 -0.0431
vn -0.9991 0.0000 0.0431
usemtl None
s off
f 3/1/1 4/2/1 2/3/1
f 5/4/2 6/5/2 1/6/2
f 3/7/3 5/4/3 1/8/3
f 6/5/4 4/9/4 1/10/4
f 2/11/5 4/9/5 6/5/5
f 2/12/6 5/4/6 3/7/6
f 2/13/7 6/5/7 5/4/7
f 1/14/8 4/2/8 3/1/8
