# Blender v2.93.5 OBJ File: 'small town.blend'
# www.blender.org
mtllib small town.mtl
o Cube_Cube.001
v -45.405712 -1.535347 31.646166
v -45.405712 -0.765611 31.646166
v -45.405712 -1.535347 -27.202671
v -45.405712 -0.765611 -27.202671
v 58.472317 -1.535347 31.646166
v 58.472317 -0.765611 31.646166
v 58.472317 -1.535347 -27.202671
v 58.472317 -0.765611 -27.202671
v 29.217907 -0.765611 -27.327765
v 40.368954 -0.765611 -27.327765
v 39.459755 -0.765611 -24.392794
v 40.257210 -0.765611 -23.434195
v 47.602283 -0.765611 -23.291374
v 47.294575 -0.765611 -3.294905
v 45.730148 -0.765611 -1.876528
v 26.212427 -0.765611 -1.845400
v 26.286037 -0.765611 21.161985
v 24.779198 -0.765611 23.782618
v 23.105759 -0.765611 25.621466
v 20.446484 -0.765611 25.772919
v 5.102522 -0.765611 26.043016
v -1.452934 -0.765611 25.934332
v -9.669171 -0.765611 26.013067
v -9.321239 9.451782 -0.414090
v -44.119545 17.184258 -0.058929
v -43.777916 17.184258 -25.196516
v -2.875620 17.184258 -24.980663
v -3.295757 17.184258 -11.134971
v -24.454313 17.184258 -10.828013
v -24.397556 17.184258 -9.311433
v -0.340003 -0.765611 -9.379981
v 6.687183 -0.765611 -5.136543
v 16.065050 -0.994506 17.122303
v 17.189358 -0.765611 15.470738
v 17.358088 -0.765611 -4.751029
v 18.658171 -0.765611 -5.890655
v 18.639669 -0.765611 -23.815369
v 28.335791 -0.765611 -23.860712
v 29.433903 -0.765611 -25.136909
v 6.254186 -0.765611 16.983452
v 9.805415 -0.919860 17.101164
v -9.533444 9.451782 13.807908
v -0.375891 0.816450 -5.127504
v -1.282932 9.451782 13.920182
v -45.405712 18.856646 31.646166
v -45.405712 18.856646 -27.202671
v 40.368954 18.856646 -27.327765
v 58.472317 18.856646 -27.202671
v 58.472317 18.856646 31.646166
v 29.217907 18.856646 -27.327765
v 39.459755 18.856646 -24.392794
v 40.257210 18.856646 -23.434195
v 47.602283 18.856646 -23.291374
v 47.294575 18.856646 -3.294905
v 45.730148 18.856646 -1.876528
v 26.212427 18.856646 -1.845400
v 17.358088 18.856646 -4.751029
v 18.658171 18.856646 -5.890655
v 26.286037 18.856646 21.161985
v 24.779198 18.856646 23.782618
v 23.105759 18.856646 25.621466
v 20.446484 18.856646 25.772919
v 5.102522 18.856646 26.043016
v -1.452934 18.856646 25.934332
v -9.195721 18.856646 26.013067
v -9.059994 18.856646 16.559015
v -9.321239 18.856646 -0.414090
v -44.119545 18.856646 -0.058929
v -43.777916 18.856646 -25.196516
v -2.875620 18.856646 -24.980663
v -3.295757 18.856646 -11.134971
v -24.454313 18.856646 -10.828013
v -24.397556 18.856646 -9.311433
v -0.340003 18.856646 -9.379981
v -0.375891 18.856646 -4.956675
v 6.687183 18.856646 -5.136543
v 16.065050 18.808884 17.122303
v 17.189358 18.856646 15.470738
v 18.639669 18.856646 -23.815369
v 28.335791 18.856646 -23.860712
v 29.433903 18.856646 -25.136909
v 9.904314 18.813063 17.036972
v 6.254186 18.856646 16.983452
v 39.459755 -0.888815 -24.392794
v 40.257210 -0.888815 -23.434195
v 48.575314 -0.888815 -23.291374
v 48.267605 -0.888815 -3.294905
v 45.730148 -0.888815 -0.278562
v 28.118282 -0.888815 1.186510
v 17.301384 -0.888815 -5.058717
v 26.992456 -0.888815 2.548884
v 26.950962 11.607765 21.161985
v 25.444122 11.607765 23.782618
v 23.105759 11.607765 25.621466
v 20.446484 11.607765 26.689796
v 5.102522 11.607765 27.372915
v -1.452934 11.607765 27.264229
v -9.669171 11.607765 27.180061
v -0.848851 11.581388 -9.376794
v 10.394908 11.581388 -9.369880
v 13.871520 11.607765 16.757484
v 15.780817 -0.888815 14.118209
v 18.639669 -0.888815 -23.815369
v 28.335791 -0.888815 -23.860712
v 29.433903 -0.888815 -25.136909
v 11.492734 11.607765 17.011642
v 9.961910 11.581388 12.043773
v -9.533444 11.607765 16.559015
v -1.282932 11.607765 16.899368
v -24.390694 17.184258 -0.560600
v -9.412840 9.451782 -9.361253
v 29.217907 -1.309803 -29.848448
v 40.368954 -1.309803 -29.848448
v 40.267677 -1.535347 -27.202671
v 29.197166 -1.535347 -27.202671
v 40.267677 -1.524696 -29.887571
v 29.197166 -1.524696 -29.887571
v 16.982540 -0.651228 16.611816
v 16.982540 18.832764 16.611816
v 15.526495 11.607765 15.753141
v -0.340003 0.265817 -9.379981
v 26.111633 -0.888815 -1.778983
v 17.270288 -0.888815 -1.647870
v 26.232143 11.607765 15.434656
v 17.213907 11.607765 15.379934
v -0.817227 9.451782 -9.361253
v -0.375891 14.268702 -5.000120
v 26.212427 13.866356 -1.845400
v -9.180401 16.464821 15.859361
v -9.316127 13.866356 26.013067
v 58.472317 13.866356 -27.202671
v 58.472317 13.866356 31.646166
v 24.779198 13.866356 23.782618
v 26.286037 13.866356 21.161985
v -0.340003 14.128666 -9.379981
v 23.105759 13.866356 25.621466
v 6.687183 13.866356 -5.136543
v 20.446484 13.866356 25.772919
v -45.405712 13.866356 31.646166
v 17.189358 13.866356 15.470738
v 16.065050 13.772530 17.122303
v 5.102522 13.866356 26.043016
v -45.405712 13.866356 -27.202671
v 29.217907 13.866356 -27.327765
v 17.358088 13.866356 -4.751029
v -1.452934 13.866356 25.934332
v 18.639669 13.866356 -23.815369
v 18.658171 13.866356 -5.890655
v 39.459755 13.866356 -24.392794
v 40.368954 13.866356 -27.327765
v 28.335791 13.866356 -23.860712
v -9.321239 16.464821 -0.414090
v 40.257210 13.866356 -23.434195
v 29.433903 13.866356 -25.136909
v 47.602283 13.866356 -23.291374
v 47.294575 13.866356 -3.294905
v 45.730148 13.866356 -1.876528
v 9.879163 13.794628 17.053297
v 6.254186 13.866356 16.983452
v 16.982540 13.877638 16.611816
v 34.321861 18.856646 -27.327765
v 33.975258 18.856646 -24.764851
v 33.824928 18.856646 -23.647453
v 33.975258 13.866356 -24.764851
v 33.824928 13.866356 -23.647453
v 34.321861 13.866356 -27.327765
v -45.405712 -13.567307 -27.202671
v -45.405712 -13.567307 31.646166
v 29.197166 -13.567307 -27.202671
v 58.472317 -13.567307 31.646166
v 58.472317 -13.567307 -27.202671
v 40.267677 -13.567307 -27.202671
vt 0.375000 0.000000
vt 0.625000 0.000000
vt 0.625000 0.250000
vt 0.375000 0.250000
vt 0.625000 0.453691
vt 0.375000 0.440844
vt 0.375000 0.500000
vt 0.625000 0.500000
vt 0.625000 0.750000
vt 0.375000 0.750000
vt 0.625000 1.000000
vt 0.375000 1.000000
vt 0.375000 0.750000
vt 0.375000 0.500000
vt 0.739937 0.568344
vt 0.785540 0.569766
vt 0.785540 0.569766
vt 0.739937 0.568344
vt 0.740674 0.693321
vt 0.740965 0.741252
vt 0.740965 0.741252
vt 0.740674 0.693321
vt 0.625000 0.500000
vt 0.647393 0.500000
vt 0.648159 0.508514
vt 0.646448 0.512840
vt 0.628592 0.513485
vt 0.629253 0.603725
vt 0.634699 0.617337
vt 0.674724 0.624111
vt 0.675011 0.714093
vt 0.678245 0.725920
vt 0.683264 0.734218
vt 0.688973 0.739039
vt 0.721910 0.742122
vt 0.735982 0.741632
vt 0.740965 0.741252
vt 0.740674 0.693321
vt 0.780981 0.618983
vt 0.827569 0.621148
vt 0.826835 0.504887
vt 0.739036 0.505861
vt 0.785050 0.576537
vt 0.738711 0.576264
vt 0.729828 0.576278
vt 0.710549 0.576310
vt 0.711479 0.680609
vt 0.704923 0.703701
vt 0.695037 0.703583
vt 0.692247 0.697628
vt 0.689457 0.691673
vt 0.683454 0.611742
vt 0.687223 0.597749
vt 0.686831 0.511120
vt 0.672038 0.510915
vt 0.669681 0.505156
vt 0.671309 0.500000
vt 0.875000 0.500000
vt 0.875000 0.750000
vt 0.625000 0.750000
vt 0.544220 0.429720
vt 0.738711 0.576264
vt 0.672102 0.618072
vt 0.672102 0.618072
vt 0.676543 0.619130
vt 0.740965 0.741252
vt 0.740674 0.693321
vt 0.625000 0.750000
vt 0.625000 0.500000
vt 0.785050 0.576537
vt 0.675011 0.714093
vt 0.678245 0.725920
vt 0.753068 0.576348
vt 0.738711 0.576264
vt 0.738711 0.576264
vt 0.683264 0.734218
vt 0.688973 0.739039
vt 0.625000 1.000000
vt 0.625000 1.000000
vt 0.692247 0.697628
vt 0.689457 0.691673
vt 0.721910 0.742122
vt 0.625000 0.453691
vt 0.625000 0.250000
vt 0.625000 0.250000
vt 0.625000 0.453691
vt 0.687796 0.608182
vt 0.687796 0.608182
vt 0.735982 0.741632
vt 0.680096 0.603953
vt 0.686831 0.511120
vt 0.680096 0.603953
vt 0.646448 0.512840
vt 0.646448 0.512840
vt 0.646448 0.512840
vt 0.672038 0.510915
vt 0.740218 0.618383
vt 0.740218 0.618383
vt 0.648159 0.508514
vt 0.672038 0.510915
vt 0.672038 0.510915
vt 0.625000 0.000000
vt 0.625000 0.000000
vt 0.628592 0.513485
vt 0.669681 0.505156
vt 0.629253 0.603725
vt 0.676543 0.619130
vt 0.676543 0.619130
vt 0.827569 0.621148
vt 0.826835 0.504887
vt 0.634699 0.617337
vt 0.704923 0.703701
vt 0.695037 0.703583
vt 0.625000 0.477607
vt 0.625000 0.477607
vt 0.739036 0.505861
vt 0.672102 0.618072
vt 0.672102 0.618072
vt 0.711479 0.680609
vt 0.710549 0.576310
vt 0.678245 0.725920
vt 0.675011 0.714093
vt 0.675011 0.714093
vt 0.678245 0.725920
vt 0.683264 0.734218
vt 0.683264 0.734218
vt 0.688973 0.739039
vt 0.688973 0.739039
vt 0.692247 0.697628
vt 0.695037 0.703583
vt 0.695037 0.703583
vt 0.692247 0.697628
vt 0.721910 0.742122
vt 0.721910 0.742122
vt 0.687796 0.608182
vt 0.689457 0.691673
vt 0.689457 0.691673
vt 0.735982 0.741632
vt 0.735982 0.741632
vt 0.686831 0.511120
vt 0.680096 0.603953
vt 0.680096 0.603953
vt 0.686831 0.511120
vt 0.648159 0.508514
vt 0.647393 0.500000
vt 0.648159 0.508514
vt 0.672038 0.510915
vt 0.672038 0.510915
vt 0.646448 0.512840
vt 0.646448 0.512840
vt 0.669681 0.505156
vt 0.669681 0.505156
vt 0.628592 0.513485
vt 0.628592 0.513485
vt 0.671309 0.500000
vt 0.629253 0.603725
vt 0.629253 0.603725
vt 0.676543 0.619130
vt 0.634699 0.617337
vt 0.634699 0.617337
vt 0.704923 0.703701
vt 0.704923 0.703701
vt 0.711479 0.680609
vt 0.711479 0.680609
vt 0.710549 0.576310
vt 0.710549 0.576310
vt 0.770614 0.618831
vt 0.740218 0.618383
vt 0.785219 0.619180
vt 0.375000 0.440844
vt 0.625000 0.453691
vt 0.625000 0.477607
vt 0.375000 0.463214
vt 0.375000 0.463214
vt 0.625000 0.477607
vt 0.338214 0.500000
vt 0.315844 0.500000
vt 0.315844 0.500000
vt 0.338214 0.500000
vt 0.000000 0.000000
vt 0.671309 0.500000
vt 0.669681 0.505156
vt 0.648159 0.508514
vt 0.647393 0.500000
vt 0.647393 0.500000
vt 0.648159 0.508514
vt 0.647393 0.500000
vt 0.625000 0.477607
vt 0.625000 0.477607
vt 0.671309 0.500000
vt 0.671309 0.500000
vt 0.669681 0.505156
vt 0.625000 0.453691
vt 0.625000 0.453691
vt 0.125000 0.500000
vt 0.315844 0.500000
vt 0.338214 0.500000
vt 0.125000 0.750000
vt 0.375000 1.000000
vt 0.375000 0.440844
vt 0.375000 0.250000
vt 0.375000 0.463214
vt 0.375000 0.000000
vt 0.686334 0.614541
vt 0.671472 0.611065
vt 0.729828 0.576278
vt 0.722799 0.698511
vt 0.722799 0.698511
vt 0.000000 0.000000
vt 0.689470 0.694423
vt 0.676615 0.685410
vt 0.000000 0.000000
vn -1.0000 0.0000 0.0000
vn -0.0008 -0.0810 -0.9967
vn 1.0000 0.0000 0.0000
vn 0.0000 0.0000 1.0000
vn -0.0145 0.0000 -0.9999
vn -0.9999 0.0029 -0.0106
vn 0.0000 1.0000 0.0001
vn -1.0000 0.0000 -0.0082
vn -0.0279 -0.9993 -0.0231
vn 0.9994 -0.0335 0.0094
vn -0.9993 0.0000 0.0374
vn -0.8669 0.0000 -0.4985
vn 0.0026 -0.0004 1.0000
vn -0.7396 0.0000 -0.6731
vn -0.0569 0.0000 -0.9984
vn 0.9840 0.0000 0.1783
vn -0.0176 0.0000 -0.9998
vn -0.0017 0.0000 -1.0000
vn 1.0000 0.0000 0.0083
vn 0.0166 0.0000 -0.9999
vn 1.0000 0.0000 -0.0010
vn -0.0101 0.0001 -0.9999
vn -0.0331 0.0000 0.9995
vn 0.0047 0.0000 1.0000
vn 0.9997 -0.0234 -0.0121
vn 0.0000 1.0000 0.0000
vn -0.0388 0.0000 0.9992
vn -0.0194 0.0000 0.9998
vn -0.9999 0.0000 -0.0154
vn -1.0000 0.0000 0.0032
vn 0.9999 0.0000 0.0136
vn -0.6717 0.0000 -0.7408
vn -0.0125 0.0017 0.9999
vn 0.0069 0.0000 -1.0000
vn -0.0053 0.0000 1.0000
vn -0.0016 0.0000 -1.0000
vn -0.0169 0.0017 0.9999
vn -0.9995 0.0000 -0.0303
vn 0.6592 0.0000 0.7520
vn -0.9998 0.0000 -0.0196
vn 0.8660 -0.0465 0.4979
vn 0.6756 -0.0182 0.7370
vn 0.2234 -0.0361 0.9741
vn -0.4927 -0.1148 -0.8626
vn 0.0309 -0.0904 0.9954
vn 0.0864 -0.9963 0.0007
vn -0.0165 -0.1069 0.9941
vn 0.1826 -0.9832 0.0066
vn -0.0003 -0.1004 0.9949
vn -0.9552 0.0000 -0.2959
vn -0.7688 0.0000 0.6395
vn 0.7580 0.0000 0.6522
vn -0.0182 -0.0718 0.9973
vn 0.9952 0.0000 -0.0981
vn -0.1256 -0.9921 -0.0019
vn 0.9907 -0.1307 0.0385
vn -0.0996 -0.9908 -0.0921
vn -0.0271 -0.0186 -0.9995
vn -0.0021 -0.9986 -0.0523
vn 0.6746 -0.2841 -0.6813
vn 0.2747 -0.9090 0.3134
vn 0.9595 -0.2810 0.0191
vn -0.0002 0.0448 -0.9990
vn 0.0000 0.1791 -0.9838
vn 0.0034 -0.0812 -0.9967
vn 0.9796 -0.1997 0.0205
vn 0.0000 -1.0000 -0.0040
vn -0.9991 0.0417 -0.0043
vn -0.8884 -0.1294 0.4405
vn 0.4862 0.0000 0.8738
vn 0.0097 -0.0045 0.9999
vn 0.0223 -0.0045 0.9997
vn -0.0261 0.0017 0.9997
vn -0.0072 0.0016 1.0000
vn 0.9997 -0.0255 0.0023
vn -0.0098 0.0001 -1.0000
vn 0.9995 -0.0320 -0.0062
vn -1.0000 0.0000 -0.0083
vn -0.9910 0.0000 -0.1340
vn -0.9911 0.0000 -0.1333
vn 0.0000 -1.0000 0.0000
vn 0.0000 0.0000 -1.0000
vn 0.0002 1.0000 0.0018
vn 0.0010 1.0000 -0.0010
vn 0.0165 0.7989 -0.6012
vn -0.9993 -0.0307 -0.0214
vn 0.0000 -0.9775 0.2110
vn 0.4576 0.8892 -0.0025
vn -0.0025 0.8077 -0.5896
usemtl Material.001
s off
f 1/1/1 2/2/1 4/3/1 3/4/1
f 3/4/2 4/3/2 9/5/2 115/6/2
f 7/7/3 8/8/3 6/9/3 5/10/3
f 5/10/4 6/9/4 2/11/4 1/12/4
f 7/7/3 5/10/3 170/13/3 171/14/3
f 28/15/5 29/16/5 72/17/5 71/18/5
f 42/19/6 23/20/6 98/21/6 108/22/6
f 48/23/7 47/24/7 51/25/7 52/26/7 53/27/7 54/28/7 55/29/7 56/30/7 59/31/7 60/32/7 61/33/7 62/34/7 63/35/7 64/36/7 65/37/7 66/38/7 67/39/7 68/40/7 69/41/7 70/42/7 71/18/7 72/17/7 73/43/7 74/44/7 75/45/7 76/46/7 83/47/7 82/48/7 77/49/7 119/50/7 78/51/7 57/52/7 58/53/7 79/54/7 80/55/7 81/56/7 50/57/7 46/58/7 45/59/7 49/60/7
f 127/61/8 75/45/8 74/44/8 135/62/8
f 16/63/9 89/64/9 91/65/9
f 130/66/10 129/67/10 66/38/10 65/37/10
f 132/68/3 131/69/3 48/23/3 49/60/3
f 29/16/11 30/70/11 73/43/11 72/17/11
f 134/71/12 133/72/12 60/32/12 59/31/12
f 30/70/13 111/73/13 31/74/13 121/75/13 135/62/13 74/44/13 73/43/13
f 133/72/14 136/76/14 61/33/14 60/32/14
f 136/76/15 138/77/15 62/34/15 61/33/15
f 139/78/4 132/68/4 49/60/4 45/79/4
f 160/80/16 140/81/16 78/51/16 119/50/16
f 138/77/17 142/82/17 63/35/17 62/34/17
f 144/83/18 143/84/18 46/85/18 50/86/18
f 140/81/19 145/87/19 57/88/19 78/51/19
f 142/82/20 146/89/20 64/36/20 63/35/20
f 148/90/21 147/91/21 79/54/21 58/92/21
f 146/89/22 130/66/22 65/37/22 64/36/22
f 153/93/23 52/26/23 163/94/23 165/95/23
f 147/91/24 151/96/24 80/55/24 79/54/24
f 129/67/25 152/97/25 67/98/25 66/38/25
f 52/26/26 51/25/26 162/99/26 163/94/26
f 80/55/27 151/96/27 165/100/27 163/101/27
f 143/84/1 139/102/1 45/103/1 46/85/1
f 153/93/28 155/104/28 53/27/28 52/26/28
f 81/56/26 80/55/26 163/101/26 162/105/26
f 155/104/29 156/106/29 54/28/29 53/27/29
f 128/107/30 134/71/30 59/31/30 56/108/30
f 25/109/31 26/110/31 69/41/31 68/40/31
f 156/106/32 157/111/32 55/29/32 54/28/32
f 158/112/33 141/113/33 77/49/33 82/48/33
f 131/69/34 150/114/34 47/115/34 48/23/34
f 26/110/35 27/116/35 70/42/35 69/41/35
f 157/111/36 128/117/36 56/118/36 55/29/36
f 159/119/37 158/112/37 82/48/37 83/47/37
f 27/116/38 28/15/38 71/18/38 70/42/38
f 145/87/39 148/90/39 58/92/39 57/88/39
f 137/120/40 159/119/40 83/47/40 76/46/40
f 18/121/41 17/122/41 92/123/41 93/124/41
f 19/125/42 18/121/42 93/124/42 94/126/42
f 20/127/43 19/125/43 94/126/43 95/128/43
f 118/129/44 33/130/44 101/131/44 120/132/44
f 21/133/45 20/127/45 95/128/45 96/134/45
f 35/135/46 34/136/46 102/137/46
f 22/138/47 21/133/47 96/134/47 97/139/47
f 37/140/48 36/141/48 90/142/48 103/143/48
f 23/20/49 22/138/49 97/139/49 98/21/49
f 11/144/50 10/145/50 84/146/50
f 38/147/24 37/140/24 103/143/24 104/148/24
f 12/149/51 11/144/51 84/146/51 85/150/51
f 39/151/52 38/147/52 104/148/52 105/152/52
f 13/153/53 12/149/53 85/150/53 86/154/53
f 9/155/54 39/151/54 105/152/54
f 14/156/55 13/153/55 86/154/55 87/157/55
f 17/122/56 16/158/56 91/65/56 92/123/56
f 15/159/57 14/156/57 87/157/57 88/160/57
f 33/130/58 41/161/58 106/162/58 101/131/58
f 16/63/59 15/159/59 88/160/59 89/64/59
f 41/161/60 40/163/60 107/164/60 106/162/60
f 36/141/61 35/135/61 90/142/61
f 40/163/62 32/165/62 100/166/62 107/164/62
f 25/109/63 68/40/63 67/39/63 152/167/63 24/168/63 110/169/63
f 117/170/64 112/171/64 113/172/64 116/173/64
f 114/174/65 10/175/65 8/8/65 7/7/65
f 10/175/66 114/174/66 116/173/66 113/172/66
f 114/176/67 115/177/67 117/178/67 116/179/67
f 115/6/68 9/5/68 112/171/68 117/170/68
f 34/136/69 118/129/69 120/132/69 102/137/69
f 141/113/70 160/80/70 119/50/70 77/49/70
f 127/61/71 43/180/71 32/165/71 137/120/71
f 75/45/72 127/61/72 137/120/72 76/46/72
f 33/130/70 118/129/70 160/80/70 141/113/70
f 32/165/40 40/163/40 159/119/40 137/120/40
f 35/135/39 36/141/39 148/90/39 145/87/39
f 40/163/73 41/161/73 158/112/73 159/119/73
f 15/159/36 16/63/36 128/117/36 157/111/36
f 8/8/34 10/175/34 150/114/34 131/69/34
f 41/161/74 33/130/74 141/113/74 158/112/74
f 14/156/32 15/159/32 157/111/32 156/106/32
f 16/158/30 17/122/30 134/71/30 128/107/30
f 13/153/29 14/156/29 156/106/29 155/104/29
f 39/151/54 9/155/54 144/181/54 154/182/54
f 12/149/28 13/153/28 155/104/28 153/93/28
f 4/3/1 2/2/1 139/102/1 143/84/1
f 38/147/52 39/151/52 154/182/52 151/96/52
f 11/144/51 12/149/51 153/93/51 149/183/51
f 42/19/75 24/168/75 152/97/75 129/67/75
f 37/140/24 38/147/24 151/96/24 147/91/24
f 10/145/50 11/144/50 149/183/50 150/184/50
f 22/138/76 23/20/76 130/66/76 146/89/76
f 36/141/21 37/140/21 147/91/21 148/90/21
f 21/133/20 22/138/20 146/89/20 142/82/20
f 34/136/19 35/135/19 145/87/19 140/81/19
f 9/5/18 4/3/18 143/84/18 144/83/18
f 20/127/17 21/133/17 142/82/17 138/77/17
f 118/129/16 34/136/16 140/81/16 160/80/16
f 2/11/4 6/9/4 132/68/4 139/78/4
f 19/125/15 20/127/15 138/77/15 136/76/15
f 18/121/14 19/125/14 136/76/14 133/72/14
f 17/122/12 18/121/12 133/72/12 134/71/12
f 6/9/3 8/8/3 131/69/3 132/68/3
f 23/20/77 42/19/77 129/67/77 130/66/77
f 43/180/78 127/61/78 135/62/78 121/75/78
f 166/185/79 164/186/79 162/99/79 161/187/79
f 164/186/80 165/95/80 163/94/80 162/99/80
f 149/183/81 153/93/81 165/95/81 164/186/81
f 47/115/82 150/114/82 166/188/82 161/189/82
f 51/25/26 47/24/26 161/187/26 162/99/26
f 150/184/81 149/183/81 164/186/81 166/185/81
f 50/57/26 81/56/26 162/105/26 161/190/26
f 154/182/81 144/181/81 166/191/81 164/192/81
f 144/83/82 50/86/82 161/193/82 166/194/82
f 151/96/81 154/182/81 164/192/81 165/100/81
f 167/195/81 169/196/81 172/197/81 171/14/81 170/13/81 168/198/81
f 5/10/4 1/12/4 168/199/4 170/13/4
f 115/177/82 114/176/82 172/197/82 169/196/82
f 3/4/82 115/6/82 169/200/82 167/201/82
f 114/174/82 7/7/82 171/14/82 172/202/82
f 1/1/1 3/4/1 167/201/1 168/203/1
usemtl Material.002
f 9/155/83 105/152/83 104/148/83 103/143/83 90/142/83 35/135/83 123/204/83 122/205/83 88/160/83 87/157/83 86/154/83 85/150/83 84/146/83 10/145/83
f 99/206/84 109/207/84 106/162/84 107/164/84 100/166/84
f 44/208/85 42/19/85 108/22/85 109/207/85
f 31/209/86 44/208/86 109/207/86 99/206/86
f 10/175/87 9/5/87 112/171/87 113/172/87
f 110/169/26 30/70/26 29/16/26 28/15/26 27/116/26 26/110/26 25/109/26
f 30/70/88 110/169/88 24/168/88 111/73/88
f 123/204/89 125/210/89 124/211/89 122/205/89
f 92/123/26 124/211/26 125/210/26 120/132/26 101/131/26 106/162/26 109/207/26 108/22/26 98/21/26 97/139/26 96/134/26 95/128/26 94/126/26 93/124/26
f 42/19/26 44/208/26 24/168/26
f 111/73/26 24/168/26 44/208/26 126/212/26
o Cube.001_Cube.002
v 27.148064 6.399666 30.283768
v 27.148064 36.266533 30.283768
v 27.148064 6.399666 -1.045884
v 27.148064 36.266533 -1.045884
v 57.014931 6.399666 30.283768
v 57.014931 36.266533 30.283768
v 57.014931 6.399666 -1.045884
v 57.014931 36.266533 -1.045884
vt 0.375000 0.000000
vt 0.625000 0.000000
vt 0.625000 0.250000
vt 0.375000 0.250000
vt 0.625000 0.500000
vt 0.375000 0.500000
vt 0.625000 0.750000
vt 0.375000 0.750000
vt 0.625000 1.000000
vt 0.375000 1.000000
vt 0.125000 0.500000
vt 0.125000 0.750000
vt 0.875000 0.500000
vt 0.875000 0.750000
vn -1.0000 0.0000 0.0000
vn 0.0000 0.0000 -1.0000
vn 1.0000 0.0000 0.0000
vn 0.0000 0.0000 1.0000
vn 0.0000 -1.0000 0.0000
vn 0.0000 1.0000 0.0000
usemtl None
s off
f 173/213/90 174/214/90 176/215/90 175/216/90
f 175/216/91 176/215/91 180/217/91 179/218/91
f 179/218/92 180/217/92 178/219/92 177/220/92
f 177/220/93 178/219/93 174/221/93 173/222/93
f 175/223/94 179/218/94 177/220/94 173/224/94
f 180/217/95 176/225/95 174/226/95 178/219/95
o Cube.002_Cube.003
v 48.263325 9.358545 0.264750
v 48.263325 25.490801 0.264750
v 48.263325 9.358545 -26.684675
v 48.263325 25.490801 -26.684675
v 56.756336 9.358545 0.264750
v 56.756336 25.490801 0.264750
v 56.756336 9.358545 -26.684675
v 56.756336 25.490801 -26.684675
vt 0.375000 0.000000
vt 0.625000 0.000000
vt 0.625000 0.250000
vt 0.375000 0.250000
vt 0.625000 0.500000
vt 0.375000 0.500000
vt 0.625000 0.750000
vt 0.375000 0.750000
vt 0.625000 1.000000
vt 0.375000 1.000000
vt 0.125000 0.500000
vt 0.125000 0.750000
vt 0.875000 0.500000
vt 0.875000 0.750000
vn -1.0000 0.0000 0.0000
vn 0.0000 0.0000 -1.0000
vn 1.0000 0.0000 0.0000
vn 0.0000 0.0000 1.0000
vn 0.0000 -1.0000 0.0000
vn 0.0000 1.0000 0.0000
usemtl None
s off
f 181/227/96 182/228/96 184/229/96 183/230/96
f 183/230/97 184/229/97 188/231/97 187/232/97
f 187/232/98 188/231/98 186/233/98 185/234/98
f 185/234/99 186/233/99 182/235/99 181/236/99
f 183/237/100 187/232/100 185/234/100 181/238/100
f 188/231/101 184/239/101 182/240/101 186/233/101
o Cube.003_Cube.004
v 0.681488 6.472977 -5.769506
v 0.681488 46.129749 -5.769506
v 0.681488 6.472977 -25.540424
v 0.681488 46.129749 -25.540424
v 17.550940 6.472977 -5.769506
v 17.550940 46.129749 -5.769506
v 17.550940 6.472977 -25.540424
v 17.550940 46.129749 -25.540424
vt 0.375000 0.000000
vt 0.625000 0.000000
vt 0.625000 0.250000
vt 0.375000 0.250000
vt 0.625000 0.500000
vt 0.375000 0.500000
vt 0.625000 0.750000
vt 0.375000 0.750000
vt 0.625000 1.000000
vt 0.375000 1.000000
vt 0.125000 0.500000
vt 0.125000 0.750000
vt 0.875000 0.500000
vt 0.875000 0.750000
vn -1.0000 0.0000 0.0000
vn 0.0000 0.0000 -1.0000
vn 1.0000 0.0000 0.0000
vn 0.0000 0.0000 1.0000
vn 0.0000 -1.0000 0.0000
vn 0.0000 1.0000 0.0000
usemtl None
s off
f 189/241/102 190/242/102 192/243/102 191/244/102
f 191/244/103 192/243/103 196/245/103 195/246/103
f 195/246/104 196/245/104 194/247/104 193/248/104
f 193/248/105 194/247/105 190/249/105 189/250/105
f 191/251/106 195/246/106 193/248/106 189/252/106
f 196/245/107 192/253/107 190/254/107 194/247/107
o Cube.004_Cube.005
v 7.205109 12.062729 16.180855
v 7.205109 28.194984 16.180855
v 7.205109 12.062729 -6.147435
v 7.205109 28.194984 -6.147435
v 16.602404 12.062729 16.180855
v 16.602404 28.194984 16.180855
v 16.602404 12.062729 -6.147435
v 16.602404 28.194984 -6.147435
vt 0.375000 0.000000
vt 0.625000 0.000000
vt 0.625000 0.250000
vt 0.375000 0.250000
vt 0.625000 0.500000
vt 0.375000 0.500000
vt 0.625000 0.750000
vt 0.375000 0.750000
vt 0.625000 1.000000
vt 0.375000 1.000000
vt 0.125000 0.500000
vt 0.125000 0.750000
vt 0.875000 0.500000
vt 0.875000 0.750000
vn -1.0000 0.0000 0.0000
vn 0.0000 0.0000 -1.0000
vn 1.0000 0.0000 0.0000
vn 0.0000 0.0000 1.0000
vn 0.0000 -1.0000 0.0000
vn 0.0000 1.0000 0.0000
usemtl None
s off
f 197/255/108 198/256/108 200/257/108 199/258/108
f 199/258/109 200/257/109 204/259/109 203/260/109
f 203/260/110 204/259/110 202/261/110 201/262/110
f 201/262/111 202/261/111 198/263/111 197/264/111
f 199/265/112 203/260/112 201/262/112 197/266/112
f 204/259/113 200/267/113 198/268/113 202/261/113
o Cube.005_Cube.006
v 27.339321 4.311291 30.071539
v 27.339321 27.665091 30.071539
v -9.936886 4.311291 30.071541
v -9.936886 27.665091 30.071541
v 27.339321 4.311291 26.604591
v 27.339321 27.665091 26.604591
v -9.936886 4.311291 26.604593
v -9.936886 27.665091 26.604593
vt 0.375000 0.000000
vt 0.625000 0.000000
vt 0.625000 0.250000
vt 0.375000 0.250000
vt 0.625000 0.500000
vt 0.375000 0.500000
vt 0.625000 0.750000
vt 0.375000 0.750000
vt 0.625000 1.000000
vt 0.375000 1.000000
vt 0.125000 0.500000
vt 0.125000 0.750000
vt 0.875000 0.500000
vt 0.875000 0.750000
vn 0.0000 0.0000 1.0000
vn -1.0000 0.0000 0.0000
vn -0.0000 0.0000 -1.0000
vn 1.0000 0.0000 0.0000
vn 0.0000 -1.0000 0.0000
vn 0.0000 1.0000 0.0000
usemtl None
s off
f 205/269/114 206/270/114 208/271/114 207/272/114
f 207/272/115 208/271/115 212/273/115 211/274/115
f 211/274/116 212/273/116 210/275/116 209/276/116
f 209/276/117 210/275/117 206/277/117 205/278/117
f 207/279/118 211/274/118 209/276/118 205/280/118
f 212/273/119 208/281/119 206/282/119 210/275/119
o Cube.006_Cube.007
v -44.363865 0.253569 30.528000
v -44.363865 30.120436 30.528000
v -44.363865 0.253569 0.661133
v -44.363865 30.120436 0.661133
v -9.892044 0.253569 30.528000
v -9.892044 30.120436 30.528000
v -9.892044 0.253569 0.661133
v -9.892044 30.120436 0.661133
vt 0.375000 0.000000
vt 0.625000 0.000000
vt 0.625000 0.250000
vt 0.375000 0.250000
vt 0.625000 0.500000
vt 0.375000 0.500000
vt 0.625000 0.750000
vt 0.375000 0.750000
vt 0.625000 1.000000
vt 0.375000 1.000000
vt 0.125000 0.500000
vt 0.125000 0.750000
vt 0.875000 0.500000
vt 0.875000 0.750000
vn -1.0000 0.0000 0.0000
vn 0.0000 0.0000 -1.0000
vn 1.0000 0.0000 0.0000
vn 0.0000 0.0000 1.0000
vn 0.0000 -1.0000 0.0000
vn 0.0000 1.0000 0.0000
usemtl None
s off
f 213/283/120 214/284/120 216/285/120 215/286/120
f 215/286/121 216/285/121 220/287/121 219/288/121
f 219/288/122 220/287/122 218/289/122 217/290/122
f 217/290/123 218/289/123 214/291/123 213/292/123
f 215/293/124 219/288/124 217/290/124 213/294/124
f 220/287/125 216/295/125 214/296/125 218/289/125
